TITLE ""
FILE "DISC1Track02.mp3" MP3
  TRACK 01 AUDIO
    TITLE "DISC1Track02_01"
    INDEX 01 00:00:00
  TRACK 02 AUDIO
    TITLE "DISC1Track02_02"
    INDEX 01 00:01:08
  TRACK 03 AUDIO
    TITLE "DISC1Track02_03"
    INDEX 01 00:01:16
  TRACK 04 AUDIO
    TITLE "DISC1Track02_04"
    INDEX 01 00:04:61
  TRACK 05 AUDIO
    TITLE "DISC1Track02_05"
    INDEX 01 00:08:53
  TRACK 06 AUDIO
    TITLE "DISC1Track02_06"
    INDEX 01 00:12:08
  TRACK 07 AUDIO
    TITLE "DISC1Track02_07"
    INDEX 01 00:12:25
  TRACK 08 AUDIO
    TITLE "DISC1Track02_08"
    INDEX 01 00:15:10
  TRACK 09 AUDIO
    TITLE "DISC1Track02_09"
    INDEX 01 00:18:14
  TRACK 10 AUDIO
    TITLE "DISC1Track02_10"
    INDEX 01 00:20:70
  TRACK 11 AUDIO
    TITLE "DISC1Track02_11"
    INDEX 01 00:21:03
  TRACK 12 AUDIO
    TITLE "DISC1Track02_12"
    INDEX 01 00:25:26
  TRACK 13 AUDIO
    TITLE "DISC1Track02_13"
    INDEX 01 00:30:64
  TRACK 14 AUDIO
    TITLE "DISC1Track02_14"
    INDEX 01 00:35:71
  TRACK 15 AUDIO
    TITLE "DISC1Track02_15"
    INDEX 01 00:36:12
  TRACK 16 AUDIO
    TITLE "DISC1Track02_16"
    INDEX 01 00:39:34
  TRACK 17 AUDIO
    TITLE "DISC1Track02_17"
    INDEX 01 00:42:50
  TRACK 18 AUDIO
    TITLE "DISC1Track02_18"
    INDEX 01 00:45:38
  TRACK 19 AUDIO
    TITLE "DISC1Track02_19"
    INDEX 01 00:45:48
  TRACK 20 AUDIO
    TITLE "DISC1Track02_20"
    INDEX 01 00:49:50
  TRACK 21 AUDIO
    TITLE "DISC1Track02_21"
    INDEX 01 00:53:20
  TRACK 22 AUDIO
    TITLE "DISC1Track02_22"
    INDEX 01 00:56:28
  TRACK 23 AUDIO
    TITLE "DISC1Track02_23"
    INDEX 01 00:56:42
  TRACK 24 AUDIO
    TITLE "DISC1Track02_24"
    INDEX 01 00:58:68
  TRACK 25 AUDIO
    TITLE "DISC1Track02_25"
    INDEX 01 01:01:30
  TRACK 26 AUDIO
    TITLE "DISC1Track02_26"
    INDEX 01 01:03:34
  TRACK 27 AUDIO
    TITLE "DISC1Track02_27"
    INDEX 01 01:03:50
  TRACK 28 AUDIO
    TITLE "DISC1Track02_28"
    INDEX 01 01:06:31
  TRACK 29 AUDIO
    TITLE "DISC1Track02_29"
    INDEX 01 01:09:13
  TRACK 30 AUDIO
    TITLE "DISC1Track02_30"
    INDEX 01 01:11:46
  TRACK 31 AUDIO
    TITLE "DISC1Track02_31"
    INDEX 01 01:11:61
  TRACK 32 AUDIO
    TITLE "DISC1Track02_32"
    INDEX 01 01:14:30
  TRACK 33 AUDIO
    TITLE "DISC1Track02_33"
    INDEX 01 01:17:01
  TRACK 34 AUDIO
    TITLE "DISC1Track02_34"
    INDEX 01 01:19:14
  TRACK 35 AUDIO
    TITLE "DISC1Track02_35"
    INDEX 01 01:19:29
  TRACK 36 AUDIO
    TITLE "DISC1Track02_36"
    INDEX 01 01:22:49
  TRACK 37 AUDIO
    TITLE "DISC1Track02_37"
    INDEX 01 01:26:24
  TRACK 38 AUDIO
    TITLE "DISC1Track02_38"
    INDEX 01 01:29:40
  TRACK 39 AUDIO
    TITLE "DISC1Track02_39"
    INDEX 01 01:29:57
  TRACK 40 AUDIO
    TITLE "DISC1Track02_40"
    INDEX 01 01:32:63
  TRACK 41 AUDIO
    TITLE "DISC1Track02_41"
    INDEX 01 01:36:44
  TRACK 42 AUDIO
    TITLE "DISC1Track02_42"
    INDEX 01 01:39:65
